<svg aria-hidden="true" style="position:absolute;width:0;height:0;overflow:hidden" xmlns="http://www.w3.org/2000/svg"><defs><symbol id="icon-antena" viewBox="0 0 32 32"><path fill="#212121" style="fill:var(--color1, #212121)" d="m30.773 22.098-8.443-8.505.937-4.615c.242.094.499.144.758.146h.006a2.159 2.159 0 1 0-2.008-1.435l-4.96.605L8.972.161a.534.534 0 0 0-.377-.16.532.532 0 0 0-.373.155L6.709 1.66a.534.534 0 0 0 0 .754l.814.826a14.943 14.943 0 0 0 2.519 17.663.513.513 0 0 0 .146.098c-.034.18-.051.364-.052.547v6.187h-6.4a2.67 2.67 0 0 0-2.667 2.667v1.067c0 .295.239.533.533.533h24.533a.533.533 0 0 0 .533-.533v-1.067a2.67 2.67 0 0 0-2.667-2.667h-6.4v-2.742a15.09 15.09 0 0 0 3.049.32 14.854 14.854 0 0 0 7.04-1.783l.818.823a.534.534 0 0 0 .377.16.532.532 0 0 0 .373-.155l1.513-1.504a.534.534 0 0 0 0-.754zM23.28 6.233a1.066 1.066 0 1 1 .752 1.822h-.003a1.067 1.067 0 0 1-.747-1.823h-.002zm-1.256 3.505-.598 2.946-1.175-1.182 1.774-1.763zm-.605-.902-1.92 1.909-1.485-1.493 3.405-.415zM24.004 28.8a1.6 1.6 0 0 1 1.6 1.6v.533H2.137V30.4a1.6 1.6 0 0 1 1.6-1.6h20.267zm-7.467-2.133v1.067h-5.333v-1.067h5.333zM11.204 25.6v-4.053c0-1.294 1.196-2.347 2.667-2.347s2.667 1.053 2.667 2.347V25.6h-5.333zm6.4-1.696v-2.357c0-1.882-1.675-3.413-3.733-3.413a3.8 3.8 0 0 0-3.281 1.786A13.87 13.87 0 0 1 8.311 4.033l18.602 18.708a13.818 13.818 0 0 1-9.309 1.163zm11.289-.684L7.836 2.039l.755-.752 7.935 7.98c.004 0 .006.007.01.01l13.115 13.191-.757.752z"/><path fill="#2196f3" style="fill:var(--color2, #2196f3)" d="M13.876 20.267h-.005a1.6 1.6 0 1 0-.004 3.2h.005a1.6 1.6 0 1 0 .004-3.2zm.373 1.978a.534.534 0 0 1-.752-.756.534.534 0 0 1 .373-.155.532.532 0 0 1 .373.911h.005z"/></symbol><symbol id="icon-astronaut" viewBox="0 0 32 32"><path fill="#2196f3" style="fill:var(--color2, #2196f3)" d="M31.974 4.524a.534.534 0 0 0-.43-.363l-1.91-.278-.855-1.731c-.179-.365-.777-.365-.956 0l-.855 1.731-1.91.278a.535.535 0 0 0-.296.91l1.383 1.348-.326 1.903c-.034.2.048.402.212.522a.53.53 0 0 0 .562.04l1.709-.899 1.709.899a.536.536 0 0 0 .775-.563l-.326-1.903 1.383-1.348a.536.536 0 0 0 .135-.547zm-2.463 1.327a.534.534 0 0 0-.153.472l.191 1.114-1-.526a.533.533 0 0 0-.498 0l-1.001.526.191-1.114a.534.534 0 0 0-.153-.472l-.81-.789 1.119-.163a.532.532 0 0 0 .402-.292l.5-1.013.5 1.013a.535.535 0 0 0 .402.292l1.119.163-.809.789zM26.133 20.522h-1.067v1.067h1.067v-1.067zM26.133 22.656h-1.067v1.067h1.067v-1.067zM27.2 21.589h-1.067v1.067H27.2v-1.067zM25.067 21.589H24v1.067h1.067v-1.067zM22.4 26.389h-1.067v1.067H22.4v-1.067zM22.4 28.522h-1.067v1.067H22.4v-1.067zM23.467 27.456H22.4v1.067h1.067v-1.067zM21.333 27.456h-1.067v1.067h1.067v-1.067zM16 24.256h-1.067v1.067H16v-1.067zM16 26.389h-1.067v1.067H16v-1.067zM17.067 25.322H16v1.067h1.067v-1.067zM14.933 25.322h-1.067v1.067h1.067v-1.067zM5.867 6.122H4.8v1.067h1.067V6.122zM5.867 8.255H4.8v1.067h1.067V8.255z"/><path fill="#2196f3" style="fill:var(--color2, #2196f3)" d="M6.933 7.189H5.866v1.067h1.067V7.189zM4.8 7.189H3.733v1.067H4.8V7.189z"/><path fill="#212121" style="fill:var(--color1, #212121)" d="M24.715 14.159a1.775 1.775 0 0 0-1.188-.705 1.778 1.778 0 0 0-1.34.352l-1.252.96-1.898 1.417-1.358-.541c2.421-1.086 4.114-3.508 4.114-6.32 0-3.823-3.123-6.933-6.961-6.933s-6.961 3.11-6.961 6.933a6.86 6.86 0 0 0 1.12 3.758l-2.764-.024h-.005c-.009 0-.015.004-.023.005a.515.515 0 0 0-.155.031l-.038.013c-.006.003-.013.003-.019.006l-3.233 1.596-.001.001-1.893.911a.397.397 0 0 0-.063.035 1.779 1.779 0 0 0-.598 2.295c.22.429.595.745 1.056.889a1.776 1.776 0 0 0 1.378-.128l1.388-.738 2.264-1.169 1.357-.008L2.2 22.211l-.002.001-1.339 1.333c-.316.315-.49.732-.49 1.178s.174.863.49 1.179c.325.323.752.485 1.179.485s.854-.162 1.18-.485l1.314-1.309 1.741-1.3.901.897-1.762 1.754-.002.001-1.339 1.333c-.316.315-.49.732-.49 1.178s.174.863.49 1.179c.325.323.753.485 1.18.485s.855-.162 1.18-.485l3.482-3.467.001-.002 1.01-1-.004-.004c.006-.006.015-.009.022-.015l5.166-5.658 3.471.494a.52.52 0 0 0 .262-.033c.018-.006.033-.015.05-.023.019-.01.039-.015.058-.027l3.213-2.133c.012-.008.018-.021.029-.029.013-.01.029-.014.041-.026l1.271-1.191c.662-.62.753-1.635.212-2.362zM2.13 17.77a.714.714 0 0 1-.558.052.717.717 0 0 1-.213-1.26l1.314-.632.449 1.312-.992.528zm3.498-1.828-1.548.8-.439-1.283 2.027-1.001-.04 1.484zm15.099-6.62a5.79 5.79 0 0 1-.599 2.559l-4.181-1.899a1.863 1.863 0 0 0-.788-1.388l1.464-4.86c2.378.756 4.105 2.974 4.105 5.588zm-11.789 0c0-3.235 2.644-5.867 5.894-5.867.253 0 .5.021.745.052l-1.432 4.754c-.019-.001-.037-.006-.057-.006-1.033 0-1.873.837-1.873 1.867s.84 1.867 1.873 1.867c.694 0 1.294-.383 1.618-.945l3.862 1.755a5.894 5.894 0 0 1-4.737 2.39c-3.25 0-5.894-2.632-5.894-5.867zm5.956.8c0 .441-.362.8-.806.8s-.806-.359-.806-.8c0-.441.362-.8.806-.8s.806.359.806.8zM2.465 25.146a.608.608 0 0 1-.854.001.592.592 0 0 1 0-.844l.962-.958.851.848-.959.955zm3.214 3.734a.608.608 0 0 1-.855.001.592.592 0 0 1 0-.844l.963-.959.852.848-.96.955zm3.481-3.469-.002.001-1.765 1.76-.852-.848 1.763-1.755.002-.001c.04-.04.065-.088.09-.135.007-.014.02-.026.026-.04.017-.041.019-.085.026-.129.003-.025.014-.047.014-.073 0-.036-.013-.07-.02-.106-.006-.032-.006-.065-.019-.095a.55.55 0 0 0-.091-.138c-.01-.012-.014-.027-.025-.038h-.001l-.001-.002-1.607-1.6c-.017-.017-.039-.024-.058-.038a.507.507 0 0 0-.087-.058.515.515 0 0 0-.093-.033.507.507 0 0 0-.103-.02.5.5 0 0 0-.095.005.53.53 0 0 0-.104.02.477.477 0 0 0-.094.045c-.02.011-.042.015-.061.029L4.23 23.486l-.901-.897 2.399-2.386 4.361 4.289-.928.919zm6.819-7.017c-.015-.002-.03.004-.045.003a.556.556 0 0 0-.3.075.492.492 0 0 0-.083.061c-.013.011-.028.017-.04.029l-4.698 5.146-4.328-4.257 2.833-2.818a.534.534 0 0 0-.379-.911v-.001l-2.219.013.028-1.607 3.104.027a6.947 6.947 0 0 0 4.981 2.101c.437 0 .864-.045 1.279-.123.04.032.079.065.13.085l2.41.96.152.758.178.885-3.003-.427zm4.041.178-.313-1.558 1.446-1.08.947 1.257-2.08 1.381zm3.754-2.831-.838.785-.931-1.236.831-.637a.735.735 0 0 1 .543-.143.718.718 0 0 1 .48.284.713.713 0 0 1-.085.947z"/><path fill="#212121" style="fill:var(--color1, #212121)" d="m13.602 18.544-2.143-2.133a.534.534 0 0 0-.753 0l-2.142 2.133a.537.537 0 0 0 0 .756l2.142 2.133a.536.536 0 0 0 .753 0l2.143-2.133a.535.535 0 0 0 0-.756zm-2.519 1.759-1.387-1.381 1.387-1.381 1.387 1.381-1.387 1.381zM17.164 5.071l-.258 1.036c.071.018 1.738.452 1.738 2.149h1.067c0-2.017-1.666-2.965-2.547-3.185zM19.711 9.322h-1.067v1.067h1.067V9.322z"/></symbol><symbol id="icon-clock" viewBox="0 0 32 32"><path fill="#212121" style="fill:var(--color1, #212121)" d="M31.297 15.301C31.295 6.849 24.442-.002 15.989 0S.686 6.855.688 15.308a15.304 15.304 0 0 0 10.649 14.576.662.662 0 0 0 .529-.065.637.637 0 0 0 .283-.356l3.865-12.25a1.912 1.912 0 1 0-.84-3.635l-5.106-5.107a.637.637 0 0 0-.902.902l5.103 5.109a1.876 1.876 0 0 0 .536 2.309l-3.683 11.673C3.844 25.783.118 17.71 2.799 10.432S13.553-.572 20.831 2.109s11.004 10.754 8.323 18.032a14.042 14.042 0 0 1-7.462 7.973l-.398-1.874a.638.638 0 0 0-1.048-.344l-3.837 3.426a.637.637 0 0 0 .231 1.084l4.899 1.563a.638.638 0 0 0 .819-.74l-.391-1.839a15.255 15.255 0 0 0 9.329-14.089zm-15.305-.637a.638.638 0 1 1 0 1.277.638.638 0 0 1 0-1.277zm2.101 14.864 2.184-1.948.603 2.84-2.787-.892z"/><path fill="#2196f3" style="fill:var(--color2, #2196f3)" d="M15.354 3.185V4.46a.638.638 0 1 0 1.276 0V3.185a.638.638 0 0 0-1.276 0zM3.876 14.664a.638.638 0 0 0 0 1.276h1.275a.638.638 0 1 0 0-1.276H3.876zM28.108 15.939a.638.638 0 1 0 0-1.276h-1.275a.638.638 0 0 0 0 1.276h1.275z"/><symbol id="icon-company1" viewBox="0 0 28 32"><path d="M4.085 0l4.771 4.517-8.856-0.005v21.915h23.149v-8.379l4.766 4.512v-22.559h-23.83zM22.939 17.517l-13.528-12.807h13.528v12.807zM18.739 23.221h-15.076v-14.739h1.066v13.741h14.010v0.998zM7.223 29.344l-0.557 1.147-0.557-1.147h-0.467l0.813 1.529v0.891h0.422v-0.891l0.811-1.529h-0.465zM7.923 31.764l0.196-0.563h0.938l0.198 0.563h0.439l-0.916-2.42h-0.377l-0.914 2.42h0.437zM8.588 29.858l0.351 1.004h-0.701l0.351-1.004zM10.805 30.804c-0.061 0.093-0.091 0.196-0.091 0.307 0 0.204 0.072 0.37 0.214 0.497 0.144 0.126 0.336 0.189 0.575 0.189s0.445-0.065 0.618-0.194l0.136 0.161h0.469l-0.356-0.421c0.14-0.191 0.209-0.435 0.209-0.733h-0.351c0 0.163-0.034 0.311-0.101 0.444l-0.467-0.552 0.165-0.12c0.116-0.084 0.2-0.168 0.251-0.253 0.051-0.085 0.076-0.178 0.076-0.279 0-0.153-0.056-0.281-0.17-0.384-0.112-0.104-0.256-0.156-0.432-0.156-0.195 0-0.35 0.055-0.465 0.166-0.115 0.11-0.173 0.259-0.173 0.449 0 0.078 0.018 0.158 0.055 0.241 0.038 0.083 0.104 0.184 0.198 0.303-0.18 0.129-0.3 0.24-0.361 0.334zM11.897 31.339c-0.119 0.091-0.246 0.136-0.382 0.136-0.121 0-0.217-0.035-0.289-0.105s-0.108-0.161-0.108-0.273c0-0.13 0.067-0.245 0.2-0.346l0.052-0.037 0.529 0.623zM11.463 30.267c-0.114-0.141-0.171-0.258-0.171-0.351 0-0.081 0.023-0.148 0.070-0.201s0.109-0.080 0.188-0.080c0.073 0 0.133 0.023 0.181 0.068 0.048 0.044 0.072 0.098 0.072 0.161 0 0.095-0.034 0.173-0.103 0.234l-0.052 0.042-0.184 0.126zM15.403 31.581c0.166-0.145 0.262-0.347 0.286-0.605h-0.419c-0.022 0.173-0.075 0.296-0.158 0.371s-0.207 0.111-0.372 0.111c-0.181 0-0.318-0.069-0.412-0.206-0.093-0.137-0.14-0.337-0.14-0.598v-0.214c0.002-0.258 0.052-0.454 0.15-0.587 0.099-0.134 0.239-0.201 0.422-0.201 0.157 0 0.277 0.039 0.357 0.116 0.082 0.076 0.133 0.202 0.153 0.376h0.419c-0.027-0.265-0.121-0.47-0.284-0.615s-0.378-0.218-0.645-0.218c-0.198 0-0.373 0.047-0.525 0.141-0.151 0.094-0.267 0.228-0.347 0.402s-0.121 0.375-0.121 0.603v0.226c0.003 0.223 0.045 0.418 0.125 0.587s0.193 0.299 0.339 0.391c0.147 0.091 0.317 0.136 0.51 0.136 0.276 0 0.497-0.072 0.663-0.216zM17.875 31.242c0.082-0.18 0.123-0.388 0.123-0.625v-0.135c-0.001-0.236-0.043-0.443-0.126-0.62-0.083-0.178-0.201-0.315-0.354-0.409-0.152-0.095-0.326-0.143-0.524-0.143s-0.372 0.048-0.525 0.145c-0.152 0.095-0.27 0.233-0.354 0.414-0.083 0.181-0.125 0.389-0.125 0.625v0.136c0.001 0.232 0.043 0.436 0.126 0.613 0.084 0.177 0.203 0.314 0.356 0.411 0.154 0.095 0.329 0.143 0.525 0.143 0.198 0 0.373-0.048 0.525-0.143 0.153-0.096 0.27-0.234 0.352-0.412zM17.424 29.874c0.102 0.143 0.153 0.349 0.153 0.617v0.126c0 0.273-0.050 0.48-0.151 0.622-0.1 0.142-0.243 0.213-0.429 0.213-0.184 0-0.328-0.073-0.432-0.218-0.103-0.145-0.155-0.351-0.155-0.617v-0.14c0.002-0.26 0.054-0.462 0.156-0.603 0.103-0.143 0.245-0.214 0.427-0.214 0.186 0 0.33 0.072 0.43 0.214z"></path></symbol><symbol id="icon-company2" viewBox="0 0 25 32"><path d="M10.532 1.806h-0.084c-0.129-0.008-0.258-0.011-0.388-0.014h-0.28c-0.244 0-0.494 0.006-0.741 0.018-0.008-0.001-0.018-0.001-0.028-0.001s-0.020 0-0.029 0.001l0.001-0c-2.376 0.138-4.582 0.733-6.576 1.696l0.104-0.045-0.266 0.128v13.626l0.623-0.212c0.546-0.188 1.129-0.357 1.731-0.513 1.488-0.398 3.202-0.638 4.967-0.661l0.014-0v1.79c-0.223 0.001-0.439 0.007-0.655 0.018h-0.052c-1.399 0.079-2.709 0.289-3.971 0.619l0.139-0.031c-1.734 0.441-3.254 1.050-4.666 1.83l0.1-0.051v-17.475c1.379-0.82 2.975-1.488 4.665-1.921l0.127-0.028c1.353-0.364 2.907-0.576 4.51-0.582h0.267c0.314 0.008 0.622 0.022 0.91 0.044 0.829 0.060 1.597 0.187 2.339 0.378l-0.090-0.020v1.762c-0.628-0.154-1.373-0.271-2.134-0.326l-0.045-0.003-0.044-0.004c-0.152-0.013-0.304-0.026-0.446-0.026zM13.633 3.607c0.391 0.030 0.796 0.044 1.205 0.044 1.689-0.007 3.324-0.228 4.881-0.639l-0.135 0.030c1.734-0.442 3.252-1.052 4.665-1.831l-0.101 0.051v17.163c-1.379 0.819-2.975 1.487-4.664 1.921l-0.127 0.028c-1.353 0.363-2.908 0.574-4.511 0.581h-0.004c-0.033 0-0.072 0-0.111 0-1.177 0-2.319-0.147-3.409-0.425l0.095 0.021v-17.275c0.265 0.062 0.537 0.118 0.814 0.164 0.455 0.077 0.934 0.133 1.401 0.167zM22.367 3.74l-0.623 0.209c-0.572 0.193-1.151 0.365-1.731 0.518-1.551 0.415-3.332 0.657-5.169 0.663h-0.004c-0.406 0-0.78-0.011-1.141-0.034l-0.497-0.033v14.017l0.426 0.037c0.395 0.035 0.803 0.052 1.214 0.052 1.45-0.006 2.853-0.198 4.189-0.553l-0.116 0.026c1.221-0.31 2.281-0.702 3.285-1.189l-0.102 0.044 0.266-0.128v-13.63z"></path><path d="M1.684 25.977c-0.167-0.173-0.401-0.281-0.661-0.281-0.011 0-0.023 0-0.034 0.001l0.002-0c-0.004-0-0.009-0-0.014-0-0.139 0-0.272 0.028-0.393 0.078l0.007-0.003c-0.237 0.095-0.42 0.28-0.51 0.512l-0.002 0.006c-0.049 0.123-0.073 0.254-0.071 0.386v2.335c-0.006 0.164 0.026 0.328 0.092 0.479 0.055 0.12 0.135 0.226 0.234 0.313 0.093 0.078 0.202 0.135 0.32 0.166 0.114 0.031 0.231 0.048 0.349 0.048 0.13 0.001 0.258-0.026 0.377-0.081 0.351-0.156 0.591-0.5 0.591-0.901v-0.261h-0.611v0.208c0 0.004 0 0.009 0 0.014 0 0.070-0.013 0.136-0.037 0.198l0.001-0.004c-0.021 0.052-0.051 0.095-0.089 0.132l-0 0c-0.070 0.054-0.159 0.088-0.255 0.089h-0c-0.011 0.001-0.023 0.002-0.036 0.002-0.103 0-0.194-0.050-0.25-0.127l-0.001-0.001c-0.051-0.082-0.082-0.182-0.082-0.289 0-0.008 0-0.016 0.001-0.024l-0 0.001v-2.177c-0.004-0.121 0.022-0.24 0.075-0.349 0.056-0.087 0.153-0.143 0.262-0.143 0.013 0 0.025 0.001 0.038 0.002l-0.001-0c0.003-0 0.007-0 0.012-0 0.107 0 0.201 0.052 0.26 0.131l0.001 0.001c0.063 0.082 0.101 0.187 0.101 0.3 0 0.005-0 0.009-0 0.014v-0.001 0.202h0.604v-0.238c0-0.003 0-0.007 0-0.011 0-0.143-0.027-0.28-0.077-0.405l0.003 0.007c-0.048-0.128-0.117-0.237-0.205-0.329l0 0zM5.31 25.951c-0.186-0.158-0.429-0.255-0.694-0.257h-0c-0.124 0-0.248 0.023-0.364 0.066-0.252 0.090-0.451 0.276-0.557 0.511l-0.002 0.006c-0.062 0.142-0.092 0.297-0.089 0.452v2.239c-0.004 0.158 0.026 0.314 0.089 0.458 0.055 0.121 0.135 0.228 0.236 0.313 0.094 0.086 0.203 0.154 0.322 0.197 0.117 0.043 0.24 0.065 0.364 0.066 0.267-0.001 0.51-0.1 0.695-0.264l-0.001 0.001c0.097-0.087 0.176-0.194 0.23-0.313 0.063-0.144 0.093-0.301 0.089-0.458v-2.239c0-0.006 0-0.013 0-0.020 0-0.156-0.033-0.305-0.092-0.439l0.003 0.007c-0.057-0.128-0.135-0.237-0.23-0.327l-0-0zM5.025 28.969c0.001 0.010 0.002 0.023 0.002 0.035 0 0.114-0.047 0.216-0.123 0.289l-0 0c-0.077 0.065-0.178 0.105-0.287 0.105s-0.21-0.040-0.288-0.105l0.001 0.001c-0.076-0.073-0.123-0.175-0.123-0.289 0-0.012 0.001-0.025 0.002-0.037l-0 0.002v-2.239c-0.001-0.010-0.001-0.022-0.001-0.034 0-0.113 0.047-0.216 0.123-0.289l0-0c0.077-0.065 0.178-0.105 0.287-0.105s0.21 0.040 0.288 0.105l-0.001-0.001c0.076 0.073 0.123 0.175 0.123 0.289 0 0.012-0.001 0.025-0.002 0.037l0-0.002v2.24zM10.072 29.969v-4.24h-0.586l-0.771 2.244h-0.010l-0.777-2.244h-0.58v4.239h0.606v-2.578h0.011l0.593 1.823h0.302l0.598-1.823h0.010v2.578h0.606zM13.513 26.027c-0.093-0.105-0.211-0.185-0.342-0.232-0.124-0.042-0.267-0.066-0.416-0.066-0.008 0-0.016 0-0.024 0l0.001-0h-0.9v4.24h0.604v-1.656h0.311c0.189 0.009 0.376-0.031 0.545-0.116 0.139-0.078 0.251-0.188 0.329-0.32l0.002-0.004c0.070-0.113 0.117-0.238 0.138-0.369 0.021-0.133 0.033-0.287 0.033-0.444 0-0.013-0-0.027-0-0.040l0 0.002c0.006-0.203-0.014-0.407-0.059-0.606-0.043-0.153-0.12-0.284-0.223-0.39l0 0zM13.201 27.319c-0.003 0.081-0.023 0.157-0.057 0.224l0.001-0.003c-0.035 0.065-0.089 0.116-0.154 0.147l-0.002 0.001c-0.075 0.034-0.162 0.054-0.254 0.054-0.011 0-0.022-0-0.033-0.001l0.002 0h-0.276v-1.441h0.311c0.009-0 0.019-0.001 0.029-0.001 0.088 0 0.172 0.020 0.247 0.055l-0.004-0.002c0.062 0.036 0.111 0.090 0.141 0.154l0.001 0.002c0.033 0.074 0.051 0.155 0.053 0.236v0.282c0 0.098 0.006 0.201 0 0.291h-0.006zM16.374 25.729h-0.495l-0.934 4.24h0.604l0.177-0.911h0.823l0.178 0.911h0.604l-0.958-4.24zM15.817 28.481l0.297-1.537h0.011l0.295 1.537h-0.604zM20.277 28.283h-0.011l-0.912-2.554h-0.581v4.24h0.604v-2.55h0.012l0.923 2.549h0.568v-4.239h-0.604v2.554zM23.968 25.729l-0.486 1.686h-0.012l-0.486-1.686h-0.639l0.83 2.448v1.791h0.604v-1.791l0.83-2.447h-0.64zM0 31.166h0.291v0.817h0.198v-0.817h0.289v-0.167h-0.778v0.168zM2.447 30.998l-0.382 0.985h0.21l0.081-0.224h0.392l0.084 0.224h0.215l-0.391-0.985h-0.21zM2.417 31.593l0.134-0.365 0.134 0.365h-0.268zM4.866 31.62h0.228v0.127c-0.063 0.051-0.145 0.082-0.234 0.083h-0c-0.004 0-0.009 0-0.014 0-0.079 0-0.149-0.037-0.195-0.094l-0-0c-0.046-0.065-0.073-0.147-0.073-0.234 0-0.008 0-0.016 0.001-0.023l-0 0.001c0-0.219 0.095-0.329 0.283-0.329 0.006-0.001 0.014-0.001 0.021-0.001 0.097 0 0.178 0.067 0.201 0.157l0 0.001 0.194-0.038c-0.042-0.192-0.18-0.289-0.417-0.289-0.004-0-0.008-0-0.013-0-0.127 0-0.244 0.048-0.331 0.127l0-0c-0.088 0.087-0.143 0.208-0.143 0.342 0 0.013 0 0.026 0.002 0.038l-0-0.002c-0 0.007-0 0.015-0 0.023 0 0.132 0.048 0.254 0.127 0.347l-0.001-0.001c0.087 0.090 0.209 0.146 0.343 0.146 0.011 0 0.021-0 0.032-0.001l-0.001 0c0.005 0 0.010 0 0.016 0 0.155 0 0.296-0.060 0.402-0.157l-0 0v-0.388h-0.426v0.166zM7.337 30.998h-0.199v0.985h0.689v-0.167h-0.49v-0.817zM9.426 30.998h-0.199v0.985h0.199v-0.985zM11.469 31.655l-0.404-0.657h-0.193v0.985h0.185v-0.643l0.396 0.643h0.198v-0.985h-0.182v0.658zM13.315 31.549h0.49v-0.167h-0.49v-0.215h0.527v-0.168h-0.727v0.985h0.747v-0.167h-0.548v-0.266zM17.792 31.386h-0.388v-0.388h-0.197v0.984h0.197v-0.431h0.388v0.431h0.198v-0.985h-0.198v0.388zM19.649 31.549h0.492v-0.167h-0.492v-0.215h0.529v-0.168h-0.726v0.985h0.746v-0.167h-0.548v-0.266zM22.168 31.55c0.171-0.027 0.258-0.118 0.258-0.274 0.001-0.008 0.002-0.018 0.002-0.028 0-0.079-0.038-0.148-0.098-0.191l-0.001-0c-0.073-0.037-0.159-0.059-0.25-0.059-0.014 0-0.027 0-0.040 0.001l0.002-0h-0.417v0.984h0.198v-0.412h0.039c0.005-0 0.010-0 0.016-0 0.039 0 0.076 0.008 0.109 0.023l-0.002-0.001c0.029 0.018 0.053 0.042 0.070 0.072l0.215 0.313h0.236l-0.12-0.192c-0.054-0.096-0.128-0.175-0.215-0.235l-0.002-0.002zM21.969 31.413h-0.146v-0.247h0.156c0.012-0.001 0.027-0.002 0.042-0.002 0.057 0 0.111 0.009 0.163 0.026l-0.004-0.001c0.026 0.024 0.043 0.058 0.043 0.096 0 0.042-0.020 0.080-0.052 0.104l-0 0c-0.049 0.016-0.106 0.025-0.164 0.025-0.013 0-0.026-0-0.039-0.001l0.002 0zM24.068 31.549h0.49v-0.167h-0.49v-0.215h0.529v-0.168h-0.729v0.985h0.747v-0.167h-0.548v-0.266z"></path></symbol><symbol id="icon-company3" viewBox="0 0 32 32"><path  d="M5.267 30.294a.098.098 0 0 1 .06.024l.155.148c-.12.12-.269.216-.436.281a1.7 1.7 0 0 1-.618.101 1.66 1.66 0 0 1-.582-.094 1.266 1.266 0 0 1-.438-.266 1.189 1.189 0 0 1-.283-.411 1.373 1.373 0 0 1-.099-.527 1.223 1.223 0 0 1 .408-.94c.132-.116.291-.207.465-.268.191-.064.394-.096.599-.094.19-.004.379.025.556.086.154.058.295.138.417.238l-.13.158a.132.132 0 0 1-.033.029.093.093 0 0 1-.052.012.119.119 0 0 1-.056-.017l-.07-.042-.097-.054a1.136 1.136 0 0 0-.306-.094 1.366 1.366 0 0 0-.231-.017 1.225 1.225 0 0 0-.43.071 1 1 0 0 0-.337.199.918.918 0 0 0-.219.317 1.042 1.042 0 0 0-.079.418c-.002.145.025.288.079.425.047.116.12.223.215.315a.878.878 0 0 0 .322.195c.127.046.262.068.399.067.079.001.158-.003.237-.013a.944.944 0 0 0 .512-.217.12.12 0 0 1 .074-.027zM9.745 29.549c.002.179-.033.356-.105.524-.063.152-.163.291-.292.407s-.286.207-.458.267c-.38.126-.799.126-1.179 0a1.36 1.36 0 0 1-.456-.268 1.205 1.205 0 0 1-.295-.411c-.14-.339-.14-.71 0-1.05.066-.153.166-.293.295-.413.13-.112.285-.2.456-.258.379-.128.8-.128 1.179 0 .172.061.328.152.458.268.128.117.227.255.293.406.072.169.107.347.105.527zm-.407 0a1.11 1.11 0 0 0-.074-.421.863.863 0 0 0-.535-.514 1.365 1.365 0 0 0-.857 0 .912.912 0 0 0-.328.199.836.836 0 0 0-.209.315 1.23 1.23 0 0 0 0 .842.86.86 0 0 0 .537.512c.276.09.581.09.857 0a.922.922 0 0 0 .328-.197.872.872 0 0 0 .207-.315 1.11 1.11 0 0 0 .074-.421zM12.801 29.991l.041.094c.015-.034.029-.064.045-.094.015-.032.032-.063.05-.093l.991-1.565c.019-.027.037-.044.056-.049a.246.246 0 0 1 .081-.008h.293v2.545h-.347v-1.95a.646.646 0 0 1 0-.088l-.997 1.587c-.013.024-.033.044-.058.058s-.055.021-.085.021h-.056c-.03 0-.06-.007-.085-.021s-.046-.034-.058-.058l-1.026-1.597v2.043h-.335v-2.54h.293a.276.276 0 0 1 .081.008c.024.01.043.028.054.049l1.012 1.567c.02.029.037.059.05.091zM16.529 29.864v.953h-.388v-2.542h.865c.163-.003.326.016.483.056a.97.97 0 0 1 .341.158.665.665 0 0 1 .194.249.766.766 0 0 1 .066.325.727.727 0 0 1-.072.325.698.698 0 0 1-.209.254.981.981 0 0 1-.343.168 1.63 1.63 0 0 1-.467.059l-.469-.007zm0-.272h.469a1.08 1.08 0 0 0 .3-.039.645.645 0 0 0 .217-.11.463.463 0 0 0 .132-.168.501.501 0 0 0 .047-.214c.004-.071-.009-.141-.039-.207s-.076-.125-.136-.174a.834.834 0 0 0-.522-.136h-.469v1.048zM21.741 30.821h-.306a.139.139 0 0 1-.085-.024.157.157 0 0 1-.05-.059l-.264-.615h-1.324l-.273.615a.146.146 0 0 1-.048.057.148.148 0 0 1-.087.025h-.306l1.163-2.546h.403l1.179 2.546zm-1.92-.945h1.093l-.461-1.036a1.755 1.755 0 0 1-.087-.239l-.045.133c-.014.04-.029.078-.043.108l-.458 1.034zM23.416 28.288a.174.174 0 0 1 .058.045l1.696 1.919v-1.976h.347v2.545h-.194a.174.174 0 0 1-.141-.062l-1.695-1.917a.646.646 0 0 1 0 .088v1.891h-.347v-2.545h.206a.167.167 0 0 1 .07.012zM28.376 29.809v1.011h-.388v-1.011l-1.072-1.533h.347c.03-.002.06.006.083.022a.216.216 0 0 1 .052.057l.671.989c.027.042.05.081.07.118s.035.072.049.108l.05-.11a.888.888 0 0 1 .066-.116l.661-.996a.284.284 0 0 1 .05-.054.128.128 0 0 1 .083-.025h.351l-1.074 1.54zM12.609 24.004c.169.019.339.034.512.047 2.616-1.017 4.829-2.681 6.363-4.785s2.319-4.553 2.259-7.043L18.86 9.718c.586 2.651.312 5.39-.792 7.913s-2.994 4.729-5.459 6.372z"/><path d="m11.58 23.888.078.013c2.634-1.637 4.642-3.923 5.765-6.562s1.308-5.51.533-8.242L13.85 5.529c1.661 2.933 2.329 6.215 1.928 9.464s-1.857 6.334-4.196 8.893zM25.506 15.165c-.698 2.735-2.392 5.202-4.832 7.035a15.392 15.392 0 0 1-2.296 1.432c1.986-.507 3.812-1.404 5.337-2.621s2.707-2.723 3.456-4.4l-1.665-1.445z"/><path d="m24.853 14.763-2.371-2.06c-.045 2.349-.814 4.644-2.226 6.648s-3.416 3.642-5.803 4.745h.012c.532 0 1.064-.028 1.592-.083 2.231-.791 4.202-2.05 5.737-3.664s2.586-3.533 3.06-5.586zM11.923 4.026 9.094 1.565c-2.529.849-4.704 2.342-6.24 4.282S.492 10.086.484 12.442c.009 2.603 1.018 5.128 2.865 7.177s4.429 3.504 7.335 4.135c2.594-2.746 4.113-6.14 4.336-9.688s-.862-7.065-3.097-10.04zM31.389 14.384c-.01-3.088-1.427-6.047-3.94-8.23S21.53 2.74 17.976 2.731a15.073 15.073 0 0 0-4.803.777l17.32 15.048c.593-1.33.897-2.744.896-4.171z"/></symbol><symbol id="icon-company4" viewBox="0 0 32 32"><path  d="M4.949 13.027h-.001c-.903 0-1.635.65-1.635 1.453v.001c0 .802.732 1.453 1.635 1.453h.001c.903 0 1.635-.65 1.635-1.453v-.001c0-.802-.732-1.453-1.635-1.453zM17.015 12.563c-.003-1.114-.502-2.182-1.388-2.97s-2.088-1.232-3.342-1.234c-1.254.002-2.457.446-3.344 1.234s-1.386 1.856-1.389 2.971v6.145s9.462-.937 9.463-6.144v-.001zM0 20.725c.002.775.35 1.518.967 2.067s1.453.857 2.325.86c.872-.002 1.708-.311 2.325-.859s.964-1.291.967-2.066v-4.276S0 17.103 0 20.726zm3.292.766c-.171 0-.337-.045-.479-.129s-.252-.204-.317-.344c-.065-.14-.082-.294-.049-.443s.115-.285.236-.392.274-.18.441-.21c.167-.03.341-.014.498.044s.292.156.387.282a.705.705 0 0 1-.107.97c-.08.071-.175.128-.28.167s-.217.059-.331.059v-.003zM9.945 21.069H9.31v.656h-.331v-1.606h1.046v.268H9.31v.415h.635v.267zm1.591-.111c0 .158-.028.297-.084.416a.636.636 0 0 1-.597.373.647.647 0 0 1-.599-.369.954.954 0 0 1-.087-.41v-.079c0-.158.028-.297.085-.417a.638.638 0 0 1 .599-.374.632.632 0 0 1 .598.374.96.96 0 0 1 .086.416v.072zm-.335-.072c0-.168-.03-.296-.09-.384s-.146-.131-.258-.131c-.111 0-.197.043-.257.13s-.091.212-.092.379v.078c0 .164.03.291.09.382s.147.136.26.136c.111 0 .196-.043.256-.13s.09-.215.09-.382v-.078zm1.408.418c0-.063-.022-.11-.066-.143s-.124-.069-.238-.106a1.716 1.716 0 0 1-.272-.11c-.182-.099-.274-.231-.274-.398 0-.087.024-.164.073-.232s.12-.122.211-.16c.092-.038.195-.057.309-.057s.217.021.307.063a.465.465 0 0 1 .283.433h-.331c0-.074-.023-.131-.069-.171s-.111-.062-.195-.062c-.081 0-.144.017-.189.052s-.067.079-.067.135c0 .052.026.096.078.131s.131.068.233.099c.188.057.325.127.411.211s.129.188.129.313c0 .139-.053.248-.158.328s-.247.118-.425.118c-.124 0-.236-.022-.338-.067s-.179-.108-.233-.186a.48.48 0 0 1-.079-.274h.332c0 .177.106.266.318.266.079 0 .14-.016.184-.047s.066-.077.066-.135zm1.766-.917h-.492v1.338h-.331v-1.338h-.485v-.268h1.308v.268zm1.156.642h-.635v.43h.746v.266h-1.076v-1.606h1.074v.268h-.743v.383h.635v.259zm.899.108h-.264v.588h-.331v-1.606h.597c.19 0 .336.042.439.127s.154.204.154.358c0 .11-.024.201-.072.275s-.119.131-.215.174l.347.656v.015h-.355l-.301-.588zm-.264-.268h.267c.083 0 .147-.021.193-.063s.068-.101.068-.175c0-.076-.022-.135-.065-.179s-.108-.065-.197-.065h-.266v.482zm2.005.29v.566h-.331v-1.606h.627c.121 0 .227.022.318.066s.163.107.212.189a.524.524 0 0 1 .074.277c0 .157-.054.282-.162.373s-.256.136-.447.136h-.29zm0-.268h.296c.087 0 .154-.021.2-.062s.069-.1.069-.176c0-.079-.023-.142-.069-.191s-.11-.074-.192-.075h-.303v.504zm2.094.138h-.635v.43h.746v.266H19.3v-1.606h1.074v.268h-.743v.383h.635v.259zm1.535-.642h-.492v1.338h-.331v-1.338h-.485v-.268H21.8v.268zm1.156.642h-.635v.43h.746v.266h-1.076v-1.606h1.074v.268h-.743v.383h.635v.259zm.899.108h-.264v.588h-.331v-1.606h.597c.19 0 .336.042.439.127s.154.204.154.358c0 .11-.024.201-.072.275s-.119.131-.215.174l.347.656v.015h-.355l-.301-.588zm-.264-.268h.267c.083 0 .147-.021.193-.063s.068-.101.068-.175c0-.076-.022-.135-.065-.179s-.108-.065-.197-.065h-.266v.482zm1.945.435c0-.063-.022-.11-.066-.143s-.124-.069-.238-.106a1.716 1.716 0 0 1-.272-.11c-.182-.099-.273-.231-.273-.398 0-.087.024-.164.073-.232s.119-.122.211-.16c.092-.038.195-.057.309-.057s.217.021.307.063a.465.465 0 0 1 .283.433h-.331c0-.074-.023-.131-.07-.171s-.111-.062-.195-.062c-.081 0-.144.017-.189.052s-.067.079-.067.135c0 .052.026.096.078.131s.131.068.233.099c.188.057.325.127.411.211s.129.188.129.313c0 .139-.053.248-.158.328s-.247.118-.425.118c-.124 0-.236-.022-.337-.067s-.179-.108-.233-.186a.48.48 0 0 1-.079-.274h.332c0 .177.106.266.318.266.079 0 .14-.016.184-.047s.066-.077.066-.135z"/></symbol><symbol id="icon-company5" viewBox="0 0 32 32"><path d="M2.416 23.738c.124.14.19.316.186.496.006.118-.016.235-.066.344s-.126.205-.222.283c-.24.166-.538.248-.839.229H0v-3.145h1.445c.285-.017.568.056.8.209.093.072.167.162.216.264s.071.213.064.324a.69.69 0 0 1-.168.481.796.796 0 0 1-.44.246.856.856 0 0 1 .498.269zm-1.73-.474h.617c.14.009.28-.028.393-.104.046-.038.082-.086.105-.139s.032-.111.027-.168c.004-.057-.005-.114-.028-.167s-.058-.101-.103-.14a.635.635 0 0 0-.404-.106H.686v.825zm1.071 1.206c.05-.039.089-.089.114-.144s.036-.115.032-.175a.387.387 0 0 0-.15-.322.683.683 0 0 0-.419-.114H.686v.865h.656a.693.693 0 0 0 .414-.109zM5.369 25.09l-.804-1.229h-.302v1.229h-.691v-3.145h1.309c.33-.021.656.075.911.267.183.171.293.396.311.634s-.058.475-.214.667a1.096 1.096 0 0 1-.624.32l.856 1.257h-.752zm-1.105-1.657h.565c.393 0 .589-.159.589-.476.004-.065-.007-.13-.032-.191s-.063-.116-.113-.163a.659.659 0 0 0-.445-.128h-.572l.007.957zM9.148 24.457H7.77l-.243.633h-.725l1.265-3.11h.784l1.26 3.11h-.725l-.238-.633zm-.185-.476-.503-1.327-.503 1.327h1.007zM13.878 25.09h-.686l-1.539-2.139v2.139h-.685v-3.145h.685l1.539 2.151v-2.151h.686v3.145zM17.794 24.338a1.433 1.433 0 0 1-.621.555c-.299.138-.63.206-.965.198h-1.222v-3.145h1.222c.334-.008.665.058.965.194.263.121.479.312.621.548.141.256.215.538.215.825s-.074.569-.215.825zm-.785-.076c.196-.209.304-.475.304-.751s-.108-.542-.304-.75a1.264 1.264 0 0 0-.859-.267h-.476v2.036h.476c.314.018.622-.078.859-.267zM9.578 4.453s8.858 3.062 8.67 7.493v7.494s-8.851-3.063-8.666-7.494l-.003-7.493zM26.139 17.685a12.85 12.85 0 0 1 5.628-1.899V13.44c-2.327.821-4.302 2.311-5.628 4.245z"/><path d="M25.134 18.392c1.369-2.524 3.743-4.472 6.633-5.443v-6.76S19.152 10.551 19.419 16.86v10.67s.562-.195 1.446-.561c0-.341 0-.685.04-1.031.261-2.929 1.782-5.644 4.228-7.546z"/><path d="M23.934 22.356c.066-.74.214-1.472.441-2.185-1.523 1.643-2.446 3.682-2.638 5.83a9.502 9.502 0 0 0-.034.615c.716-.315 1.55-.708 2.426-1.171a10.093 10.093 0 0 1-.196-3.09zM24.436 22.394a9.664 9.664 0 0 0 .156 2.798c3.446-1.888 7.319-4.806 7.17-8.332v-.307c-2.462.252-4.766 1.238-6.557 2.805a9.782 9.782 0 0 0-.768 3.036z"/></symbol><symbol id="icon-mob-menu" viewBox="0 0 32 32"><path d="M6.4 11.734v-2.134h19.2v2.134h-19.2zM6.4 17.066h19.2v-2.133h-19.2v2.133zM6.4 22.4h19.2v-2.134h-19.2v2.134z"></path></symbol><symbol id="icon-close-menu" viewBox="0 0 32 32">
<path d="M23.734 10.304l-1.504-1.504-5.963 5.962-5.962-5.962-1.504 1.504 5.962 5.962-5.962 5.963 1.504 1.504 5.962-5.963 5.963 5.963 1.504-1.504-5.963-5.963 5.963-5.962z"></path>
</symbol><symbol id="icon-company6" viewBox="0 0 32 32"><path d="M16.145 15.628a1.004 1.004 0 0 1-.206-.677v-.982c0-.301.068-.53.205-.686s.371-.234.703-.234c.312 0 .534.067.665.2.143.17.213.378.197.587v.231h-.559v-.234a1.177 1.177 0 0 0-.016-.229.22.22 0 0 0-.08-.136.322.322 0 0 0-.202-.053.342.342 0 0 0-.213.056.264.264 0 0 0-.093.15c-.016.08-.023.161-.022.243v1.191a.608.608 0 0 0 .072.335c.028.035.066.063.111.081s.095.024.144.019a.302.302 0 0 0 .198-.054.235.235 0 0 0 .083-.145c.013-.079.019-.159.017-.239v-.242h.559v.221a.897.897 0 0 1-.193.617c-.128.146-.347.219-.668.219s-.564-.078-.702-.24zM18.47 15.638c-.141-.153-.212-.375-.212-.67v-1.032c0-.292.071-.512.212-.662s.377-.224.708-.224c.328 0 .563.075.704.224s.213.37.213.662v1.032c0 .292-.072.515-.215.669s-.377.231-.702.231-.566-.078-.708-.23zm.968-.247a.567.567 0 0 0 .067-.306v-1.264a.566.566 0 0 0-.066-.3c-.028-.036-.068-.065-.114-.082s-.097-.024-.147-.018c-.05-.006-.101 0-.148.018s-.086.046-.115.082a.545.545 0 0 0-.067.3v1.27a.57.57 0 0 0 .067.306.363.363 0 0 0 .262.103c.05 0 .099-.009.144-.027s.085-.043.118-.076v-.006zM20.767 13.08h.601l.452 1.905.463-1.905h.585l.059 2.749h-.433l-.046-1.911-.446 1.911h-.347l-.463-1.918-.043 1.918h-.437l.054-2.749zM23.602 13.08h.937c.54 0 .81.26.81.781 0 .499-.284.747-.852.747h-.319v1.222H23.6l.003-2.749zm.8 1.175c.057.006.115.002.17-.013s.105-.04.148-.074a.443.443 0 0 0 .083-.31.846.846 0 0 0-.028-.25c-.008-.027-.023-.053-.043-.075s-.045-.041-.073-.055a.608.608 0 0 0-.258-.044h-.224v.822h.224zM26.182 13.08h.621l.637 2.749h-.539l-.126-.634h-.554l-.13.634h-.547l.637-2.749zm.531 1.797-.216-1.154-.216 1.154h.433zM27.955 13.08h.405l.775 1.568V13.08h.48v2.749h-.385l-.779-1.637v1.637h-.496l.001-2.749zM30.739 14.782l-.644-1.697h.542l.393 1.09.369-1.09h.531l-.636 1.697v1.048h-.555v-1.048zM17.038 17.032v.144h-.472v1.117h-.198v-1.117h-.474v-.144h1.144zM18.517 18.293h-.153a.066.066 0 0 1-.043-.012.059.059 0 0 1-.025-.029l-.136-.3h-.655l-.136.3a.08.08 0 0 1-.021.034.07.07 0 0 1-.043.012h-.153l.578-1.261h.201l.585 1.256zm-.958-.468h.546l-.231-.513a.993.993 0 0 1-.043-.119l-.022.067-.021.053-.229.512zM19.514 18.169a.99.99 0 0 0 .109 0 .75.75 0 0 0 .176-.038l.077-.031v-.284h-.231c-.006 0-.011 0-.017-.002s-.01-.004-.014-.008c-.004-.003-.007-.006-.009-.01s-.003-.008-.003-.013v-.097h.449v.483a.795.795 0 0 1-.244.103 1 1 0 0 1-.145.026 1.893 1.893 0 0 1-.169.008.862.862 0 0 1-.291-.047.703.703 0 0 1-.231-.132.612.612 0 0 1-.149-.2.627.627 0 0 1-.053-.262.576.576 0 0 1 .201-.464.7.7 0 0 1 .231-.131.98.98 0 0 1 .31-.047c.054 0 .108.004.161.011a.813.813 0 0 1 .254.082c.035.02.069.042.101.066l-.055.078c-.004.007-.011.013-.019.017s-.017.007-.026.007a.075.075 0 0 1-.036-.01.822.822 0 0 1-.057-.03.582.582 0 0 0-.183-.062.901.901 0 0 0-.147-.011.672.672 0 0 0-.223.035.438.438 0 0 0-.278.257.585.585 0 0 0 0 .42.502.502 0 0 0 .285.259c.074.022.151.03.229.025zM21.357 18.149h.631v.144h-.825v-1.261h.198l-.005 1.117zM22.645 18.293h-.198v-1.261h.198v1.261zM23.381 17.038a.1.1 0 0 1 .03.023l.845.951a.338.338 0 0 1 0-.045V17.027h.172v1.266h-.099a.09.09 0 0 1-.043-.007.092.092 0 0 1-.031-.024l-.844-.95v.981h-.165v-1.261h.103c.011 0 .022.002.032.006zM25.885 17.032v.139h-.701v.416h.568v.134h-.568v.43h.701v.139h-.904v-1.258h.904zM5.161 9.244l8.781 2.153v7.543l-8.781-2.152V9.244zm-.563-.643v8.554l9.907 2.429v-8.553l-9.907-2.43z"/><path d="M9.908 23.555 0 21.124v-8.553l9.908 2.43v8.554z"/><path d="m4.762 9.148 8.667 2.126-3.686 3.183-8.668-2.127 3.687-3.182zm-.164-.547L0 12.571l9.908 2.43 4.597-3.97-9.907-2.43zM10.465 23.074l4.04-3.488-4.04-.991v4.48z"/></symbol><symbol id="icon-diagram" viewBox="0 0 32 32"><path fill="#2196f3" style="fill: var(--color1, #2196f3)" d="M14.926 14.965h1.066v4.798h-1.066v-4.798zM19.19 17.097h1.066v2.665h-1.066v-2.665zM10.661 18.696h1.066v1.066h-1.066v-1.066zM7.463 18.163h1.066v1.599h-1.066v-1.599z"></path><path fill="#212121" style="fill: var(--color2, #212121)" d="M1.599 28.291h25.586c0 0 0 0 0 0 0.883 0 1.599-0.716 1.599-1.599v0-2.132c0-0.883-0.716-1.599-1.599-1.599v0h-0.533v-13.294l3.028-2.868c0.207 0.104 0.452 0.166 0.711 0.166 0.888 0 1.608-0.72 1.608-1.608s-0.72-1.608-1.608-1.608c-0.888 0-1.608 0.72-1.608 1.608 0 0.247 0.056 0.481 0.155 0.69l-0.004-0.010-2.281 2.162v-1.23c0-0.883-0.716-1.599-1.599-1.599v0h-21.323c-0.883 0-1.599 0.716-1.599 1.599v0 15.992h-0.533c-0.883 0-1.599 0.716-1.599 1.599v0 2.132c0 0.883 0.716 1.599 1.599 1.599v0zM30.384 4.837c0.294 0 0.533 0.239 0.533 0.533s-0.239 0.533-0.533 0.533v0c-0.294 0-0.533-0.239-0.533-0.533s0.239-0.533 0.533-0.533v0zM3.198 6.969c0-0.294 0.239-0.533 0.533-0.533h21.323c0.294 0 0.533 0.239 0.533 0.533v2.239l-1.066 1.013v-2.185c0-0.295-0.239-0.534-0.534-0.534h-19.189c-0.294 0-0.534 0.239-0.534 0.533v13.327c0 0.294 0.239 0.533 0.534 0.533h19.189c0.295 0 0.534-0.239 0.534-0.533v-9.675l1.066-1.010v12.283h-22.389v-15.991zM7.996 13.899c-0.001 0-0.003 0-0.005 0-0.883 0-1.599 0.716-1.599 1.599s0.716 1.599 1.599 1.599c0.432 0 0.824-0.172 1.112-0.45l-0 0 1.853 0.93c0.215 0.107 0.476 0.057 0.636-0.122l3.939-4.432 3.872 2.902c0.208 0.155 0.498 0.139 0.686-0.039l3.365-3.188v8.131h-18.123v-12.261h18.123v2.661l-3.771 3.572-3.904-2.927c-0.088-0.067-0.2-0.107-0.32-0.107-0.158 0-0.3 0.069-0.398 0.178l-0 0.001-3.993 4.493-1.493-0.746c0.011-0.064 0.017-0.128 0.020-0.193 0-0.883-0.716-1.599-1.599-1.599v0zM8.529 15.498c0 0.294-0.239 0.533-0.533 0.533s-0.533-0.239-0.533-0.533v0c0-0.294 0.239-0.533 0.533-0.533s0.533 0.239 0.533 0.533v0zM11.727 24.026h5.33v0.533c0 0.294-0.238 0.533-0.533 0.533h-4.265c-0.294 0-0.533-0.239-0.533-0.533v0-0.533zM1.067 24.56c0-0.294 0.238-0.533 0.533-0.533h9.062v0.533c0 0.883 0.716 1.599 1.599 1.599v0h4.265c0.883 0 1.599-0.716 1.599-1.599v0-0.533h9.062c0.294 0 0.533 0.239 0.533 0.533v2.132c0 0.294-0.239 0.533-0.533 0.533h-25.586c-0 0-0 0-0 0-0.294 0-0.533-0.239-0.533-0.533 0 0 0 0 0 0v0-2.132z"></path></symbol><symbol id="icon-facebook" viewBox="0 0 32 32"><path  d="M21.329 5.313h2.921V.225C23.746.156 22.013 0 19.994 0c-4.212 0-7.097 2.649-7.097 7.519V12H8.249v5.688h4.648V32h5.699V17.689h4.46l.708-5.688h-5.169V8.082c.001-1.644.444-2.769 2.735-2.769z"/></symbol><symbol id="icon-facebook2" viewBox="0 0 32 32"><path d="M21.329 5.313h2.921V.225C23.746.156 22.013 0 19.994 0c-4.212 0-7.097 2.649-7.097 7.519V12H8.249v5.688h4.648V32h5.699V17.689h4.46l.708-5.688h-5.169V8.082c.001-1.644.444-2.769 2.735-2.769z"/></symbol><symbol id="icon-instagram" viewBox="0 0 32 32"><path  d="M31.969 9.408c-.075-1.7-.35-2.869-.744-3.882a7.806 7.806 0 0 0-1.851-2.838A7.867 7.867 0 0 0 26.542.844C25.523.45 24.36.175 22.66.1 20.947.019 20.403 0 16.059 0s-4.888.019-6.595.094c-1.7.075-2.869.35-3.882.744a7.803 7.803 0 0 0-2.838 1.85A7.867 7.867 0 0 0 .9 5.52C.506 6.539.231 7.702.156 9.402c-.081 1.713-.1 2.257-.1 6.601s.019 4.888.094 6.595c.075 1.7.35 2.869.744 3.882a7.895 7.895 0 0 0 1.85 2.838 7.867 7.867 0 0 0 2.832 1.844c1.019.394 2.182.669 3.882.744 1.706.075 2.25.094 6.595.094s4.888-.019 6.595-.094c1.7-.075 2.869-.35 3.882-.744a8.184 8.184 0 0 0 4.682-4.682c.394-1.019.669-2.182.744-3.882.075-1.707.094-2.251.094-6.595s-.006-4.888-.081-6.595zm-2.882 13.065c-.069 1.563-.331 2.407-.55 2.969a5.31 5.31 0 0 1-3.038 3.038c-.563.219-1.413.481-2.969.55-1.688.075-2.194.094-6.464.094s-4.782-.019-6.464-.094c-1.563-.069-2.407-.331-2.969-.55a4.926 4.926 0 0 1-1.838-1.194 4.974 4.974 0 0 1-1.194-1.838c-.219-.563-.481-1.413-.55-2.969-.075-1.688-.094-2.194-.094-6.464s.019-4.782.094-6.464c.069-1.563.331-2.407.55-2.969a4.868 4.868 0 0 1 1.2-1.838A4.974 4.974 0 0 1 6.639 3.55c.563-.219 1.413-.481 2.969-.55 1.688-.075 2.194-.094 6.464-.094 4.276 0 4.782.019 6.464.094 1.563.069 2.407.331 2.969.55a4.914 4.914 0 0 1 1.838 1.194 4.974 4.974 0 0 1 1.194 1.838c.219.563.481 1.413.55 2.969.075 1.688.094 2.194.094 6.464s-.019 4.77-.094 6.458z"/><path  d="M16.059 7.783c-4.538 0-8.22 3.682-8.22 8.22s3.682 8.22 8.22 8.22c4.539 0 8.22-3.682 8.22-8.22s-3.682-8.22-8.22-8.22zm0 13.552a5.333 5.333 0 0 1 0-10.664 5.333 5.333 0 0 1 0 10.664zM26.524 7.458a1.919 1.919 0 1 1-3.838 0 1.919 1.919 0 0 1 3.838 0z"/></symbol><symbol id="icon-instagram2" viewBox="0 0 32 32"><path d="M31.969 9.408c-.075-1.7-.35-2.869-.744-3.882a7.806 7.806 0 0 0-1.851-2.838A7.867 7.867 0 0 0 26.542.844C25.523.45 24.36.175 22.66.1 20.947.019 20.403 0 16.059 0s-4.888.019-6.595.094c-1.7.075-2.869.35-3.882.744a7.803 7.803 0 0 0-2.838 1.85A7.867 7.867 0 0 0 .9 5.52C.506 6.539.231 7.702.156 9.402c-.081 1.713-.1 2.257-.1 6.601s.019 4.888.094 6.595c.075 1.7.35 2.869.744 3.882a7.895 7.895 0 0 0 1.85 2.838 7.867 7.867 0 0 0 2.832 1.844c1.019.394 2.182.669 3.882.744 1.706.075 2.25.094 6.595.094s4.888-.019 6.595-.094c1.7-.075 2.869-.35 3.882-.744a8.184 8.184 0 0 0 4.682-4.682c.394-1.019.669-2.182.744-3.882.075-1.707.094-2.251.094-6.595s-.006-4.888-.081-6.595zm-2.882 13.065c-.069 1.563-.331 2.407-.55 2.969a5.31 5.31 0 0 1-3.038 3.038c-.563.219-1.413.481-2.969.55-1.688.075-2.194.094-6.464.094s-4.782-.019-6.464-.094c-1.563-.069-2.407-.331-2.969-.55a4.926 4.926 0 0 1-1.838-1.194 4.974 4.974 0 0 1-1.194-1.838c-.219-.563-.481-1.413-.55-2.969-.075-1.688-.094-2.194-.094-6.464s.019-4.782.094-6.464c.069-1.563.331-2.407.55-2.969a4.868 4.868 0 0 1 1.2-1.838A4.974 4.974 0 0 1 6.639 3.55c.563-.219 1.413-.481 2.969-.55 1.688-.075 2.194-.094 6.464-.094 4.276 0 4.782.019 6.464.094 1.563.069 2.407.331 2.969.55a4.914 4.914 0 0 1 1.838 1.194 4.974 4.974 0 0 1 1.194 1.838c.219.563.481 1.413.55 2.969.075 1.688.094 2.194.094 6.464s-.019 4.77-.094 6.458z"/><path d="M16.059 7.783c-4.538 0-8.22 3.682-8.22 8.22s3.682 8.22 8.22 8.22c4.539 0 8.22-3.682 8.22-8.22s-3.682-8.22-8.22-8.22zm0 13.552a5.333 5.333 0 0 1 0-10.664 5.333 5.333 0 0 1 0 10.664zM26.524 7.458a1.919 1.919 0 1 1-3.838 0 1.919 1.919 0 0 1 3.838 0z"/></symbol><symbol id="icon-linkedin" viewBox="0 0 32 32"><path  d="M31.992 32v-.001H32V20.263c0-5.741-1.236-10.164-7.948-10.164-3.227 0-5.392 1.771-6.276 3.449h-.093v-2.913h-6.364v21.364h6.627V21.42c0-2.785.528-5.479 3.977-5.479 3.399 0 3.449 3.179 3.449 5.657v10.401h6.62zM.528 10.636h6.635V32H.528V10.636zM3.843 0C1.722 0 0 1.721 0 3.843s1.721 3.879 3.843 3.879c2.121 0 3.843-1.757 3.843-3.879A3.846 3.846 0 0 0 3.843 0z"/></symbol><symbol id="icon-linkedin2" viewBox="0 0 32 32"><path d="M31.992 32v-.001H32V20.263c0-5.741-1.236-10.164-7.948-10.164-3.227 0-5.392 1.771-6.276 3.449h-.093v-2.913h-6.364v21.364h6.627V21.42c0-2.785.528-5.479 3.977-5.479 3.399 0 3.449 3.179 3.449 5.657v10.401h6.62zM.528 10.636h6.635V32H.528V10.636zM3.843 0C1.722 0 0 1.721 0 3.843s1.721 3.879 3.843 3.879c2.121 0 3.843-1.757 3.843-3.879A3.846 3.846 0 0 0 3.843 0z"/></symbol><symbol id="icon-mail" viewBox="0 0 32 32"> <path  d="M29 4H3C1.346 4 0 5.346 0 7v18c0 1.654 1.346 3 3 3h26c1.654 0 3-1.346 3-3V7c0-1.654-1.346-3-3-3zm0 2c.136 0 .265.028.383.077L16 17.676 2.617 6.077A.996.996 0 0 1 3 6h26zm0 20H3a1 1 0 0 1-1-1V8.19l13.345 11.565a.998.998 0 0 0 1.31 0L30 8.19V25a1 1 0 0 1-1 1z"/></symbol><symbol id="icon-send" viewBox="0 0 32 32"><path fill="#fff" style="fill:var(--color4, #fff)" d="M32 0 0 18l10.227 3.788L26 7 14.002 23.186l.01.004-.012-.004V32l5.735-6.691L27 28l5-28z"/></symbol><symbol id="icon-close" viewBox="0 0 32 32"><path d="M32 3.223l-3.223-3.223-12.777 12.777-12.777-12.777-3.223 3.223 12.777 12.777-12.777 12.777 3.223 3.223 12.777-12.777 12.777 12.777 3.223-3.223-12.777-12.777 12.777-12.777z"></path></symbol><symbol id="icon-tel" viewBox="0 0 32 32"><path d="M23 0H9C7.346 0 6 1.346 6 3v26c0 1.654 1.346 3 3 3h14c1.654 0 3-1.346 3-3V3c0-1.654-1.346-3-3-3zM9 2h14a1 1 0 0 1 1 1v21H8V3a1 1 0 0 1 1-1zm14 28H9a1 1 0 0 1-1-1v-3h16v3a1 1 0 0 1-1 1z"/></symbol><symbol id="icon-twitter" viewBox="0 0 32 32"><path   d="M32 6.078c-1.19.522-2.458.868-3.78 1.036a6.523 6.523 0 0 0 2.886-3.626 13.11 13.11 0 0 1-4.16 1.588A6.574 6.574 0 0 0 22.154 3c-3.632 0-6.556 2.948-6.556 6.562 0 .52.044 1.02.152 1.496-5.454-.266-10.28-2.88-13.522-6.862a6.605 6.605 0 0 0-.898 3.316 6.57 6.57 0 0 0 2.914 5.452 6.479 6.479 0 0 1-2.964-.808v.072c0 3.188 2.274 5.836 5.256 6.446a6.548 6.548 0 0 1-1.72.216 5.8 5.8 0 0 1-1.242-.112c.85 2.598 3.262 4.508 6.13 4.57a13.182 13.182 0 0 1-8.134 2.798c-.538 0-1.054-.024-1.57-.09A18.469 18.469 0 0 0 10.064 29c12.072 0 18.672-10 18.672-18.668 0-.29-.01-.57-.024-.848A13.087 13.087 0 0 0 32 6.078z"/></symbol><symbol id="icon-email-black" viewBox="0 0 32 32"><path d="M26.667 5.333h-21.333c-1.467 0-2.653 1.2-2.653 2.667l-0.013 16c0 1.467 1.2 2.667 2.667 2.667h21.333c1.467 0 2.667-1.2 2.667-2.667v-16c0-1.467-1.2-2.667-2.667-2.667zM26.133 11l-9.427 5.893c-0.427 0.267-0.987 0.267-1.413 0l-9.427-5.893c-0.333-0.213-0.533-0.573-0.533-0.96 0-0.893 0.973-1.427 1.733-0.96l8.933 5.587 8.933-5.587c0.76-0.467 1.733 0.067 1.733 0.96 0 0.387-0.2 0.747-0.533 0.96z"></path></symbol><symbol id="icon-person-black" viewBox="0 0 32 32"><path d="M16 16c2.947 0 5.333-2.387 5.333-5.333s-2.387-5.333-5.333-5.333c-2.947 0-5.333 2.387-5.333 5.333s2.387 5.333 5.333 5.333zM16 18.667c-3.56 0-10.667 1.787-10.667 5.333v1.333c0 0.733 0.6 1.333 1.333 1.333h18.667c0.733 0 1.333-0.6 1.333-1.333v-1.333c0-3.547-7.107-5.333-10.667-5.333z"></path></symbol><symbol id="icon-phone-black" viewBox="0 0 32 32"><path d="M24.882 19.773l-3.268-0.373c-0.785-0.090-1.557 0.18-2.11 0.733l-2.367 2.367c-3.641-1.853-6.626-4.825-8.478-8.478l2.38-2.38c0.553-0.553 0.823-1.325 0.733-2.11l-0.373-3.242c-0.154-1.299-1.248-2.277-2.56-2.277h-2.226c-1.454 0-2.663 1.209-2.573 2.663 0.682 10.987 9.469 19.761 20.443 20.443 1.454 0.090 2.663-1.119 2.663-2.573v-2.226c0.013-1.3-0.965-2.393-2.264-2.547z"></path></symbol><symbol id="icon-twitter2" viewBox="0 0 32 32"><path d="M32 6.078c-1.19.522-2.458.868-3.78 1.036a6.523 6.523 0 0 0 2.886-3.626 13.11 13.11 0 0 1-4.16 1.588A6.574 6.574 0 0 0 22.154 3c-3.632 0-6.556 2.948-6.556 6.562 0 .52.044 1.02.152 1.496-5.454-.266-10.28-2.88-13.522-6.862a6.605 6.605 0 0 0-.898 3.316 6.57 6.57 0 0 0 2.914 5.452 6.479 6.479 0 0 1-2.964-.808v.072c0 3.188 2.274 5.836 5.256 6.446a6.548 6.548 0 0 1-1.72.216 5.8 5.8 0 0 1-1.242-.112c.85 2.598 3.262 4.508 6.13 4.57a13.182 13.182 0 0 1-8.134 2.798c-.538 0-1.054-.024-1.57-.09A18.469 18.469 0 0 0 10.064 29c12.072 0 18.672-10 18.672-18.668 0-.29-.01-.57-.024-.848A13.087 13.087 0 0 0 32 6.078z"/></symbol></defs></svg>
